<?xml version="1.0" encoding="utf-8"?>
<!-- Generator: Adobe Illustrator 25.4.1, SVG Export Plug-In . SVG Version: 6.00 Build 0)  -->
<svg version="1.1" id="Calque_1" xmlns="http://www.w3.org/2000/svg" xmlns:xlink="http://www.w3.org/1999/xlink" x="0px" y="0px"
	 viewBox="0 0 97.81 94.94" style="enable-background:new 0 0 97.81 94.94;" xml:space="preserve">
<style type="text/css">
	.st0{fill:none;stroke:#FBBA00;stroke-width:5;stroke-miterlimit:10;}
</style>
<g>
	<g>
		<path class="st0" d="M13.88,16.4C21.41,8.22,33.21,2.5,46.3,2.5c12.99,0,24.56,5.12,32.08,13.11"/>
		<g>
			<g>
				<path class="st0" d="M62.2,27.5c-1.46-3.46-4.46-6.21-7.87-8.35c-4.85-3.04-10.76-3.94-15.51-1.91
					c-4.97,2.12-9.37,5.67-11.31,10.26c-1.12,2.66-1.57,5.66-1.66,8.54"/>
				<path class="st0" d="M26.59,30.48c0.39-1.82,1.35-4.07-0.06-5.73c-1.76-2.07-4.1-3.68-6.46-5.15c-2.5-1.55-5.08-2.96-7.93-3.93
					c-2.62-0.89-6.09-1.64-8.36,0.34c-1.83,1.6-1.34,4.06-0.71,6.04c2.45,7.69,3.8,15.53,3.29,23.54
					c-0.4,6.26-1.38,12.48-1.74,18.74c-0.17,2.92,0.12,5.98,0.93,8.8c2.59,8.97,9.66,14.2,18.82,17.31
					c6.66,2.26,13.94,2.09,20.89,1.89c6.67-0.19,13.58,0.31,20.03-1.89c9.16-3.11,16.23-8.34,18.82-17.31
					c0.81-2.82,1.1-5.88,0.93-8.8c-0.35-6.26-1.33-12.48-1.74-18.74c-0.52-8.01,0.84-15.85,3.29-23.54
					c0.63-1.98,1.12-4.44-0.71-6.04c-2.26-1.98-5.74-1.24-8.36-0.34c-2.85,0.97-5.43,2.37-7.93,3.93c-2.36,1.47-4.7,3.08-6.46,5.15
					c-1.41,1.66-0.44,3.91-0.06,5.73c0.39,1.83,0.61,3.7,0.7,5.56"/>
			</g>
		</g>
	</g>
</g>
</svg>
